<?xml version="1.0" encoding="UTF-8"?>
<svg viewBox="0 0 504 504" xmlns="http://www.w3.org/2000/svg">
 <path d="m203.31 470.98c-37.818-2.3766-72.441-10.984-98.545-24.498-7.3146-3.7869-9.6695-5.5213-10.404-7.6628-0.66994-1.9523-0.22661-8.7306 1.5043-23l2.4542-20.232-2.3725-26.5-2.3725-26.5-6.0191-10.5c-8.2877-14.457-18.2-29.123-30.075-44.5-16.931-21.922-22.603-31.401-27.228-45.5-2.3941-7.2977-2.7994-10.197-2.8654-20.5-0.06361-9.9313 0.32707-13.293 2.2662-19.5 7.1945-23.029 22.734-40.013 43.512-47.555 19.539-7.0922 37.909-7.045 60.816 0.15615 22.266 6.9996 50.126 23.892 70.473 42.73l5.9214 5.4821-2.2098-8.7653c-4.5667-18.114-5.4213-31.972-2.7649-44.833 2.9506-14.285 9.7962-27.049 18.622-34.723 4.1694-3.6251 16.938-10.492 19.509-10.492 0.98893 0 1.2782-3.9607 1.2782-17.5v-17.5h-33v-15h33v-22h15v22h32v15h-32l0.0011 17.25 0.00106 17.25 7.2489 3.2626c16.308 7.3401 26.881 21.745 31.158 42.452 2.6565 12.861 1.8019 26.718-2.7648 44.833l-2.2098 8.7653 5.9214-5.4821c14.766-13.671 34.55-27.101 52.144-35.396 23.933-11.285 46.517-15.221 65.195-11.362 17.162 3.5449 27.949 9.1508 39.308 20.428 16.385 16.267 24.029 40.91 19.553 63.035-3.2924 16.275-10.043 28.634-29.204 53.465-11.892 15.411-21.817 30.09-30.091 44.503l-6.0259 10.497-2.3725 26.5-2.3724 26.5 2.4541 20.232c1.7309 14.269 2.1743 21.048 1.5043 23-0.73489 2.1416-3.0898 3.8759-10.404 7.6628-26.948 13.951-60.125 22.018-101.04 24.568-18.935 1.1799-75.276 1.1383-94.5-0.06973v1e-5z"/>
 <path d="m253.09 266.34c0.28727-0.96253 4.1984-12.325 8.6915-25.25 16.955-48.773 18.556-54.604 19.65-71.54 1.1134-17.247-2.2001-29.145-10.855-38.978-5.0248-5.7085-12.473-9.4623-18.775-9.4623s-13.75 3.7538-18.775 9.4623c-8.6549 9.8325-11.968 21.73-10.855 38.978 1.0933 16.937 2.6949 22.768 19.65 71.54 4.4931 12.925 8.4042 24.287 8.6915 25.25s0.86734 1.75 1.289 1.75 1.0018-0.78751 1.289-1.75v2e-5z" fill="#fff"/>
 <path d="m401.73 322.02c6.474-11.732 19.863-31.472 32.174-47.432 18.701-24.246 23.64-34.175 24.599-49.446 1.061-16.902-3.9554-30.541-15.442-41.987-11.942-11.899-25.859-16.735-45.25-15.723-18.119 0.94563-34.232 6.5014-54.866 18.918-33.444 20.125-63.633 55.071-71.812 83.127-1.9744 6.7727-6.3993 26.835-8.6535 39.235l-0.56801 3.1244 13.2 0.66345c38.403 1.9303 87.707 8.9054 113.2 16.014 8.477 2.3639 8.5511 2.3281 13.419-6.4945h1e-5z" fill="#fff"/>
 <path d="m125.31 326.22c29.262-6.6911 63.081-11.372 95.5-13.219 11.275-0.64223 20.601-1.2493 20.724-1.3491 0.50721-0.41125-6.829-34.679-9.0296-42.178-8.2537-28.125-38.396-63.009-71.828-83.127-20.633-12.416-36.747-17.972-54.866-18.918-19.391-1.012-33.308 3.8239-45.25 15.723-11.495 11.454-16.528 25.144-15.416 41.932 1.0281 15.522 6.1866 25.803 25.345 50.515 11.684 15.071 24.982 34.754 31.369 46.43 5.1538 9.4221 2.5829 8.9627 23.453 4.1906v-1e-5z" fill="#fff"/>
 <path d="m156.67 372.63c71.887-15.988 147.95-13.464 218.86 7.2638l12.954 3.7866 1.2135-15.047c0.66751-8.2761 1.4506-16.432 1.7402-18.123l0.5267-3.076-14.329-3.251c-82.01-18.607-169.65-18.607-251.66-1e-5l-14.329 3.251 0.52668 3.076c0.28967 1.6918 1.0728 9.8473 1.7402 18.123l1.2135 15.047 12.954-3.7866c7.1248-2.0826 19.99-5.3513 28.588-7.2638l1e-5 -1e-5z" fill="#fff"/>
 <path d="m153.31 409.08c36.733-9.5214 59.764-12.427 98.5-12.427 21.198 1e-5 32.215 0.45519 43 1.7766 27.634 3.386 58.416 10.383 83.263 18.927 9.915 3.4096 12.659 4.0368 12.3 2.8112-0.25431-0.86769-0.7675-4.8326-1.1402-8.8109s-1.1828-7.8969-1.8002-8.708c-1.3812-1.8146-23.661-8.3722-42.283-12.445-70.203-15.355-145.79-12.885-214.18 6.9987-7.5136 2.1845-14.166 4.6355-14.783 5.4465s-1.4274 4.7296-1.8002 8.708-0.88586 7.9432-1.1402 8.8109c-0.35931 1.2256 2.3851 0.59836 12.3-2.8112 7.0195-2.4138 19.513-6.1385 27.763-8.2769v1e-5z" fill="#fff"/>
 <path d="m297.81 453.05c19.406-1.2092 39.538-3.9874 53.5-7.383 12.461-3.0305 27.931-8.5661 26.827-9.6-1.1952-1.1199-21.142-7.4003-32.827-10.336-32.901-8.2656-56.658-11.081-93.5-11.081s-60.599 2.8156-93.5 11.081c-11.686 2.9358-31.632 9.2161-32.827 10.336-1.1025 1.0331 14.357 6.5668 26.827 9.6026 13.072 3.1824 34.746 6.2893 51 7.3107 19.224 1.2081 75.565 1.2496 94.5 0.06973v1e-5z" fill="#fff"/>
</svg>
