{
  "accessors": [
    {
      "bufferView": 2,
      "componentType": 5126,
      "count": 2229,
      "max": [
        90.90170288085938,
        87.09819793701172,
        396.7279052734375
      ],
      "min": [
        -84.85549926757813,
        -86.01599884033203,
        -0.0
      ],
      "type": "VEC3"
    },
    {
      "bufferView": 2,
      "byteOffset": 26748,
      "componentType": 5126,
      "count": 2229,
      "max": [
        0.9995283484458923,
        0.9969555139541626,
        1.0
      ],
      "min": [
        -0.9994783997535706,
        -0.9987175464630127,
        -1.0
      ],
      "type": "VEC3"
    },
    {
      "bufferView": 3,
      "componentType": 5126,
      "count": 2229,
      "max": [
        0.9999857544898987,
        0.9998824000358582,
        0.9860528111457825,
        1.0
      ],
      "min": [
        -0.9999483823776245,
        -0.9998307824134827,
        -0.9687120914459229,
        -1.0
      ],
      "type": "VEC4"
    },
    {
      "bufferView": 1,
      "componentType": 5126,
      "count": 2229,
      "max": [
        0.9664000272750854,
        0.9812999963760376
      ],
      "min": [
        0.027499999850988388,
        0.027300000190734863
      ],
      "type": "VEC2"
    },
    {
      "bufferView": 0,
      "componentType": 5125,
      "count": 11994,
      "type": "SCALAR"
    }
  ],
  "asset": {
    "extras": {
      "author": "Csaba Baity (tsabszy) (https://sketchfab.com/tsabszy)",
      "license": "CC-BY-4.0 (http://creativecommons.org/licenses/by/4.0/)",
      "source": "https://sketchfab.com/3d-models/chess-piece-king-51dc45670f114c48a3f63cf2dd4f169c",
      "title": "Chess Piece, King"
    },
    "generator": "Sketchfab-12.67.0",
    "version": "2.0"
  },
  "bufferViews": [
    {
      "buffer": 0,
      "byteLength": 47976,
      "name": "floatBufferViews",
      "target": 34963
    },
    {
      "buffer": 0,
      "byteLength": 17832,
      "byteOffset": 47976,
      "byteStride": 8,
      "name": "floatBufferViews",
      "target": 34962
    },
    {
      "buffer": 0,
      "byteLength": 53496,
      "byteOffset": 65808,
      "byteStride": 12,
      "name": "floatBufferViews",
      "target": 34962
    },
    {
      "buffer": 0,
      "byteLength": 35664,
      "byteOffset": 119304,
      "byteStride": 16,
      "name": "floatBufferViews",
      "target": 34962
    }
  ],
  "buffers": [
    {
      "byteLength": 154968,
      "uri": "scene.bin"
    }
  ],
  "extensionsRequired": [
    "KHR_materials_pbrSpecularGlossiness"
  ],
  "extensionsUsed": [
    "KHR_materials_pbrSpecularGlossiness"
  ],
  "images": [
    {
      "uri": "textures/wire_030025023_diffuse.jpeg"
    },
    {
      "uri": "textures/wire_030025023_specularGlossiness.png"
    },
    {
      "uri": "textures/wire_030025023_normal.png"
    }
  ],
  "materials": [
    {
      "doubleSided": true,
      "emissiveFactor": [
        0.1,
        0.1,
        0.1
      ],
      "emissiveTexture": {
        "index": 0
      },
      "extensions": {
        "KHR_materials_pbrSpecularGlossiness": {
          "diffuseFactor": [
            1.0,
            1.0,
            1.0,
            1.0
          ],
          "diffuseTexture": {
            "index": 0
          },
          "glossinessFactor": 1.0,
          "specularFactor": [
            1.0,
            1.0,
            1.0
          ],
          "specularGlossinessTexture": {
            "index": 1
          }
        }
      },
      "name": "wire_030025023",
      "normalTexture": {
        "index": 2
      }
    }
  ],
  "meshes": [
    {
      "name": "Object_0",
      "primitives": [
        {
          "attributes": {
            "NORMAL": 1,
            "POSITION": 0,
            "TANGENT": 2,
            "TEXCOORD_0": 3
          },
          "indices": 4,
          "material": 0,
          "mode": 4
        }
      ]
    }
  ],
  "nodes": [
    {
      "children": [
        1
      ],
      "matrix": [
        0.0007571656606160104,
        0.0,
        0.0,
        0.0,
        0.0,
        1.6812454997428237e-19,
        -0.0007571656606160104,
        0.0,
        0.0,
        0.0007571656606160104,
        1.6812454997428237e-19,
        0.0,
        0.0,
        0.0,
        0.0,
        1.0
      ],
      "name": "Sketchfab_model"
    },
    {
      "children": [
        2
      ],
      "name": "0b18c88202eb4f56857c0345f27b7260.obj.cleaner.materialmerger.gles"
    },
    {
      "mesh": 0,
      "name": "Object_2"
    }
  ],
  "samplers": [
    {
      "magFilter": 9729,
      "minFilter": 9987,
      "wrapS": 10497,
      "wrapT": 10497
    }
  ],
  "scene": 0,
  "scenes": [
    {
      "name": "Sketchfab_Scene",
      "nodes": [
        0
      ]
    }
  ],
  "textures": [
    {
      "sampler": 0,
      "source": 0
    },
    {
      "sampler": 0,
      "source": 1
    },
    {
      "sampler": 0,
      "source": 2
    }
  ]
}
