<?xml version="1.0" encoding="UTF-8"?>
<svg viewBox="0 0 504 504" xmlns="http://www.w3.org/2000/svg">
 <path d="m157.19 457.86c-1.4639-13.67 1.3487-29.058 7.5592-41.357 5.1243-10.148 12.114-18.375 33.981-40 12.97-12.826 23.85-24.526 26.969-29 10.143-14.549 17.902-32.542 21.661-50.232 1.9272-9.0679 2.52-33.801 1.0558-44.052l-0.82614-5.7834-6.1738 4.387c-11.507 8.177-23.114 15.002-43.824 25.769-39.565 20.57-46.318 26.67-61.273 55.339-8.3577 16.022-13.15 23.147-19.081 28.367-4.7726 4.201-11.745 7.2048-16.723 7.2048-6.5647 0-12.761-6.1872-12.768-12.75l-0.00373-3.25h-5.4508c-8.0844 0-15.237-1.7966-22.774-5.72-20.569-10.708-27.733-33.702-18.805-60.353 4.2711-12.748 8.3531-20.183 23.842-43.427 16.097-24.156 21.044-33.036 25.344-45.5 3.2185-9.3283 3.2787-9.8253 3.3311-27.5 0.0669-22.532-0.05914-22.251 17.951-40 15.053-14.835 21.561-23.863 21.561-29.912-1e-5 -2.1606-0.92674-15.134-2.0594-28.831s-1.9202-25.999-1.75-27.338c0.29211-2.2994 2.0225-1.4073 30.912 15.938l30.603 18.374 18.192-19.365c10.005-10.651 18.536-19.365 18.957-19.365s6.2428 12.038 12.938 26.75 12.547 26.665 13.005 26.562c6.7263-1.5204 20.928-2.4656 30.204-2.0102 35.455 1.7408 65.891 15.429 91.5 41.15 23.643 23.747 39.07 51.149 54.073 96.048 20.994 62.828 34.723 142.81 37.085 216.05l0.6596 20.452h-309.16l-0.71143-6.6432z"/>
 <path d="m126.72 187.21c6.4284-3.1771 10.292-6.0016 16-11.698 6.9155-6.9014 15.025-18.648 15.025-21.762-1e-5 -3.3467-9.3505-4.1806-15.509-1.383-5.493 2.4954-9.0742 6.8759-18.282 22.362-11.246 18.914-10.866 18.096-8.0452 17.316 1.2847-0.35539 6.1494-2.5309 10.81-4.8344z" fill="#fff"/>
 <path d="m76.493 304.54c1.2376-1.8364 2.2501-4.4198 2.2501-5.7408 0-5.6863-5.5726-11.308-11.2-11.299-4.3513 0.00706-8.8005 3.7564-11.528 9.715-2.0609 4.5017-2.6928 7.7164-3.0744 15.641l-0.48034 9.9752 10.892-7.4766c5.9904-4.1122 11.904-8.9792 13.142-10.816v1e-5z" fill="#fff"/>
 <path d="m458.38 454.95c2.5079-2.5079 2.5373-2.7141 1.8925-13.25-3.6448-59.55-10.006-105.29-22.143-159.2-10.281-45.672-20.786-77.341-34.496-104-9.0321-17.562-18.016-30.137-30.383-42.527-19.281-19.317-40.061-30.743-66.589-36.615-18.53-4.1016-53.479-2.7114-58.905 2.3432-2.9437 2.7425-2.4305 8.4184 0.99115 10.961 2.3808 1.7694 3.0006 1.787 12.5 0.35523 37.427-5.641 72.036 5.2173 99.646 31.263 27.062 25.529 46.049 68.306 62.237 140.22 11.725 52.086 18.17 97.194 21.645 151.5 0.96431 15.069 1.328 17.255 3.202 19.25 2.8568 3.041 7.1895 2.9172 10.404-0.29717l1e-5 -1e-5z" fill="#fff"/>
</svg>
