<?xml version="1.0" encoding="UTF-8"?>
<svg viewBox="0 0 504 504" xmlns="http://www.w3.org/2000/svg">
 <path d="m90 422.5v-18.5h25v-42.71l21-22.362 21-22.362v-149.12l-24.444-18.475-24.444-18.475-0.05624-33.75-0.05624-33.75h57v30h52v-30h70v30h52v-30h57l-0.05206 33.75-0.05207 33.75-24.446 18.5-24.446 18.5-0.00152 74.696-0.0015 74.696 20.971 22.304 20.971 22.304 0.02893 21.25 0.02893 21.25h25v37h-324v-18.5z"/>
 <path d="m387.55 134.55c1.35-1.35 2.4546-3.6204 2.4546-5.0454 0-1.425-1.1046-3.6954-2.4546-5.0454l-2.4545-2.4546h-266.18l-2.4545 2.4546c-1.35 1.35-2.4546 3.6204-2.4546 5.0454 0 1.425 1.1046 3.6954 2.4546 5.0454l2.4545 2.4546h266.18l2.4545-2.4546z" fill="#fff"/>
 <path d="m337.55 172.55c1.35-1.35 2.4546-3.6204 2.4546-5.0454 0-1.425-1.1046-3.6954-2.4546-5.0454l-2.4545-2.4545h-166.18l-2.4546 2.4545c-1.35 1.35-2.4545 3.6204-2.4545 5.0454s1.1046 3.6954 2.4546 5.0454l2.4545 2.4546h166.18l2.4545-2.4546z" fill="#fff"/>
 <path d="m337.55 321.55c1.35-1.35 2.4546-3.6205 2.4546-5.0455 0-1.425-1.1046-3.6954-2.4546-5.0454l-2.4545-2.4546h-166.18l-2.4546 2.4546c-1.35 1.35-2.4545 3.6204-2.4545 5.0454 0 1.425 1.1046 3.6954 2.4546 5.0454l2.4545 2.4545h166.18l2.4545-2.4545z" fill="#fff"/>
 <path d="m379.09 367.72c4.3426-3.3342 4.603-8.0661 0.64664-11.752-2.0751-1.9333-4.2132-1.9662-127.73-1.9662s-125.66 0.03291-127.73 1.9662c-3.9564 3.6859-3.696 8.4178 0.64665 11.752 2.3106 1.7741 251.86 1.774 254.17 0l1e-5 -1e-5z" fill="#fff"/>
 <path d="m379.09 409.72c4.3426-3.3342 4.603-8.0661 0.64664-11.752-2.0751-1.9333-4.2132-1.9662-127.73-1.9662s-125.66 0.03291-127.73 1.9662c-3.9564 3.6859-3.696 8.4178 0.64665 11.752 2.3106 1.7741 251.86 1.774 254.17 0l1e-5 -1e-5z" fill="#fff"/>
</svg>
