<?xml version="1.0" encoding="UTF-8"?>
<svg viewBox="0 0 504 504" xmlns="http://www.w3.org/2000/svg">
 <path d="m62.695 460.2-14.737-14.762 3.2712-3.0949c9.7475-9.2222 28.802-20.058 44.382-25.24 18.676-6.2107 21.404-6.5002 62.389-6.6219 35.195-0.1045 37.992-0.24505 45.5-2.287 11.233-3.0549 21.431-8.476 29.011-15.421 7.7034-7.0588 8.1646-8.7688 2.3646-8.7688-5.9746 0-27.907-4.6202-38.376-8.084-12.14-4.0168-33.5-14.508-33.5-16.454-1e-5 -0.83314 3.15-14.091 7-29.462s6.9885-28.296 6.9744-28.723-3.2161-2.8016-7.1156-5.2766c-30.931-19.632-42.456-61.82-26.394-96.622 9.6554-20.921 23.893-34.898 64.135-62.959 19.588-13.659 36.657-26.787 41.229-31.709l2.3292-2.5074-4.104-0.69338c-5.8053-0.9808-12.969-6.1527-16.525-11.931-2.6799-4.3542-3.0291-5.8043-3.0291-12.578s0.34921-8.2242 3.0291-12.578c10.049-16.328 32.892-16.328 42.942 0 2.6799 4.3542 3.0291 5.8043 3.0291 12.578s-0.34921 8.2242-3.0291 12.578c-3.5562 5.778-10.72 10.95-16.525 11.931l-4.104 0.69338 2.3292 2.5074c4.5719 4.9218 21.641 18.049 41.229 31.709 40.243 28.062 54.48 42.038 64.135 62.959 16.062 34.802 4.5373 76.99-26.394 96.622-3.8995 2.475-7.1016 4.8494-7.1156 5.2766s3.1244 13.353 6.9744 28.723 7 28.629 7 29.462c1e-5 1.9459-21.36 12.438-33.5 16.454-10.468 3.4637-32.401 8.084-38.376 8.084-5.7999 0-5.3388 1.71 2.3646 8.7688 7.5795 6.9453 17.778 12.366 29.011 15.421 7.5084 2.0419 10.305 2.1825 45.5 2.287 31.983 0.09496 38.677 0.3728 45.5 1.8886 19.491 4.33 39.188 13.053 53.375 23.637 12.972 9.6776 13.328 7.3228-3.6721 24.295l-14.734 14.709-5.9369-4.4406c-15.123-11.311-34.38-19.217-53.532-21.977-5.775-0.83209-21.975-1.9707-36-2.5301-14.025-0.55949-29.52-1.7184-34.434-2.5754-12.867-2.2441-26.582-7.0841-35.838-12.647-4.4258-2.66-8.3533-4.8364-8.7277-4.8364s-4.3019 2.1764-8.7277 4.8364c-9.2564 5.5632-22.971 10.403-35.838 12.647-4.9139 0.85703-20.409 2.016-34.434 2.5754-36.428 1.4531-51.084 4.0097-68.751 11.992-5.2966 2.3931-17.31 9.8574-24.782 15.398-1.9327 1.433-2.7673 0.7735-16.771-13.254v1e-5z"/>
 <path d="m260 226.5v-12.5h24v-15h-24v-25h-15v25h-25v15h25v25h15v-12.5z" fill="#fff"/>
 <path d="m205.27 302.48c4.8238-1.9835 13.149-4.7749 18.5-6.2031 8.8106-2.3515 11.477-2.5968 28.23-2.5968s19.419 0.24526 28.23 2.5968c7.756 2.0701 21.011 6.8887 28.281 10.281 0.85933 0.40098 7.4892-10.15 7.4892-11.919 1e-5 -1.03-9.0757-5.2637-18.12-8.4524-16.435-5.7948-27.563-7.6503-45.88-7.6503s-29.446 1.8555-45.88 7.6503c-9.0438 3.1888-18.12 7.4224-18.12 8.4524-1e-5 1.7686 6.6298 12.32 7.4892 11.919 0.55594-0.25942 4.9575-2.0945 9.7813-4.078z" fill="#fff"/>
 <path d="m185.32 363.13c17.649-12.113 44.183-20.119 66.68-20.119s49.032 8.0061 66.68 20.119c2.2991 1.578 4.3825 2.8691 4.6298 2.8691 0.50659 0 8.69-10.679 8.69-11.34 1e-5 -1.0754-13.516-9.0396-23-13.552-23.92-11.382-50.023-15.368-75.683-11.558-14.209 2.1099-25.824 5.6133-38.317 11.558-9.4838 4.5126-23 12.477-23 13.552-1e-5 0.66104 8.1834 11.34 8.69 11.34 0.24731 0 2.3308-1.2911 4.6298-2.8691l-1e-5 -1e-5z" fill="#fff"/>
</svg>
