<?xml version="1.0" encoding="UTF-8"?>
<svg viewBox="0 0 504 504" xmlns="http://www.w3.org/2000/svg">
 <path transform="translate(-1.6318e-6 560)" d="m203.57-93.526c-35.669-2.2723-64.835-9.0426-89.825-20.851-12.589-5.9488-11.641-2.7984-8.435-28.035l2.2232-17.5-2.3058-25.5c-1.5074-16.671-2.7374-25.846-3.5524-26.5-0.68561-0.55001-3.8939-5.725-7.1296-11.5-8.5588-15.276-18.676-30.528-31.175-47-14.761-19.453-18.912-25.734-23.557-35.647-9.2965-19.838-9.0526-38.338 0.76773-58.233 3.5676-7.2276 6.2686-11.034 11.772-16.592 24.181-24.417 60.957-26.96 100.77-6.9669 28.375 14.251 48.255 30.619 69.76 57.438 1.4988 1.8692 0.65778-1.6632-3.3334-14-7.6444-23.629-9.0002-30.817-8.9592-47.5 0.02923-11.925 0.37098-14.964 2.3052-20.5 5.1479-14.735 14.706-26.411 25.873-31.609l6.2102-2.8906 0.0104-19.75 0.01041-19.75h-33v-15h33v-22h15v22h32v15h-32v39.765l5.75 2.8033c10.81 5.2703 20.343 17.088 25.354 31.431 1.9343 5.5364 2.276 8.5755 2.3052 20.5 0.0409 16.683-1.3149 23.871-8.9592 47.5-3.9912 12.337-4.8322 15.869-3.3334 14 21.505-26.819 41.384-43.187 69.76-57.438 39.808-19.993 76.585-17.45 100.77 6.9669 5.5034 5.5573 8.2044 9.364 11.772 16.592 9.8203 19.895 10.064 38.394 0.76773 58.233-4.6453 9.9128-8.7963 16.194-23.557 35.647-12.499 16.472-22.616 31.724-31.175 47-3.2357 5.775-6.444 10.95-7.1296 11.5-0.81495 0.65374-2.0449 9.8293-3.5524 26.5l-2.3058 25.5 2.2232 17.5c3.1975 25.169 4.0004 22.192-7.435 27.569-14.047 6.6043-21.076 9.1432-35.894 12.965-16.358 4.2188-35.914 7.0926-57.356 8.4287-18.983 1.1829-75.376 1.1374-94.425-0.07621z"/>
 <path transform="translate(-1.6318e-6 560)" d="m253-270.11c0-0.93328 6.5305-21.119 14.512-44.856 15.729-46.779 18.138-55.724 19.105-70.947 1.2317-19.385-3.4224-34.464-13.832-44.816-7.339-7.2978-11.549-9.1516-20.785-9.1516s-13.446 1.8538-20.785 9.1516c-10.41 10.352-15.064 25.43-13.832 44.816 0.9672 15.223 3.3759 24.168 19.105 70.947 7.9817 23.738 14.512 43.923 14.512 44.856s0.45 1.6969 1 1.6969 1-0.76359 1-1.6969v1e-5z" fill="#fff"/>
 <path transform="translate(-1.6318e-6 560)" d="m130.18-210.93c21.655-6.1775 47.892-11.144 74.818-14.161 21.679-2.4298 72.321-2.4298 94 0 26.926 3.0178 53.163 7.9839 74.818 14.161 6.7747 1.9326 13.153 3.5138 14.173 3.5138 3.5553-1e-5 7.9636-5.1831 15.139-17.8 10.214-17.959 19.787-32.454 32.494-49.2 14.355-18.918 18.962-25.812 22.578-33.786 15.227-33.582-0.66759-71.566-34.702-82.93-7.1636-2.3919-9.4636-2.6693-22-2.6537-11.858 0.01475-15.465 0.41126-23.574 2.5912-26.069 7.0083-51.665 22.588-74.4 45.285-13.223 13.201-22.783 25.932-30.435 40.529-5.5171 10.524-10.122 26.635-14.269 49.92l-2.3228 13.043h-9l-2.3228-13.043c-4.1469-23.285-8.752-39.396-14.269-49.92-7.6521-14.597-17.212-27.327-30.435-40.529-22.734-22.697-48.331-38.277-74.4-45.285-8.1088-2.18-11.716-2.5764-23.574-2.5912-12.536-0.01563-14.836 0.26181-22 2.6537-34.035 11.364-49.929 49.348-34.702 82.93 3.6154 7.9735 8.2224 14.868 22.578 33.786 12.707 16.746 22.281 31.241 32.494 49.2 7.1755 12.617 11.584 17.8 15.139 17.8 1.0206-1e-5 7.3986-1.5812 14.173-3.5138v1e-5z" fill="#fff"/>
 <path transform="translate(-1.6318e-6 560)" d="m132.92-156.34c23.281-8.5667 50.545-15.15 77.577-18.732 9.7035-1.2858 20.227-1.7227 41.5-1.7227s31.796 0.43683 41.5 1.7227c27.174 3.601 54.287 10.162 77.906 18.853 12.112 4.4568 14.835 4.4138 17.467-0.27595 1.9763-3.521 0.75344-7.566-2.9723-9.8318-4.6172-2.8079-32.411-11.783-48.297-15.596-31.521-7.566-52.145-9.9674-85.603-9.9674-39.695 0-71.453 4.7291-107.78 16.049-24.882 7.7545-30.224 10.617-30.224 16.197 0 2.6896 4.1324 7.232 6.5793 7.232 0.91861-1e-5 6.4735-1.7675 12.344-3.9277v1e-5z" fill="#fff"/>
 <path transform="translate(-1.6318e-6 560)" d="m126.11-116.3c27.66-12.514 66.421-22.199 100.19-25.035 50.231-4.2181 103.69 4.4803 150.13 24.427l8.4058 3.6104 5.0778-2.5731c10.994-5.571 4.7239-10.802-26.422-22.046-33.502-12.094-75.757-19.473-111.5-19.473s-77.998 7.3798-111.5 19.473c-30.88 11.147-37.327 16.435-26.75 21.94 2.6125 1.3599 5.0253 2.4936 5.3617 2.5192s3.4864-1.254 7-2.8436z" fill="#fff"/>
 <path transform="translate(-1.6318e-6 560)" d="m243.69-318.16c-8.74-25.991-12.983-41.996-15.31-57.75-3.4696-23.49 1.2138-41.569 12.745-49.2 3.5676-2.3609 5.2718-2.7996 10.876-2.7996s7.3089 0.43866 10.876 2.7996c15.029 9.9457 17.722 33.945 8.1027 72.2-3.3403 13.284-17.935 57.5-18.979 57.5-0.3639-1e-5 -4.1042-10.238-8.3117-22.75v1e-5z"/>
 <path transform="translate(-1.6318e-6 560)" d="m385-226.54c-1.375-0.55345-9.25-2.7596-17.5-4.9026-28.695-7.4538-56.789-11.582-86.033-12.643l-17.033-0.6177 0.71686-7.5051c4.021-42.096 30.498-81.019 75.748-111.35 39.578-26.533 74.13-29.938 96.709-9.5314 12.395 11.202 18.003 31.704 13.931 50.921-2.9328 13.839-8.7465 23.83-31.744 54.55-6.2928 8.406-15.21 21.343-19.816 28.75-8.8048 14.159-9.3428 14.602-14.979 12.333v-1e-5z"/>
 <path transform="translate(-1.6318e-6 560)" d="m104.07-238.8c-4.6322-7.4491-13.571-20.421-19.864-28.827-17.811-23.793-21.958-29.979-26.289-39.22-9.0814-19.379-9.1659-37.781-0.25152-54.746 7.9406-15.111 25.3-24.818 44.383-24.818 22.751-1e-5 52.323 13.807 81.036 37.836 33.26 27.834 52.379 60.914 55.779 96.511l0.73102 7.6531-10.047 0.01031c-28.215 0.02897-68.446 5.9507-99.047 14.579-7.15 2.0161-14.127 3.868-15.504 4.1154-2.2756 0.4087-3.2738-0.78752-10.927-13.094z"/>
</svg>
