<?xml version="1.0" encoding="iso-8859-1"?>
<!-- Uploaded to: SVG Repo, www.svgrepo.com, Generator: SVG Repo Mixer Tools -->
<svg version="1.1" id="Layer_1" xmlns="http://www.w3.org/2000/svg" xmlns:xlink="http://www.w3.org/1999/xlink" 
	 viewBox="0 0 512 512" xml:space="preserve">
<circle style="fill:#E6F3FF;" cx="256" cy="256" r="256"/>
<path style="fill:#CFDBE6;" d="M507.592,303.456L264.185,60.049c0,0,0.053,10.28,0.141,27.37l-28.786,1.276l28.941,28.941
	c0.112,21.752,0.247,38.045,0.39,65.996l-67.796,11.457l68.155,68.155c0.297,57.784,0.579,112.719,0.726,141.195l-97.013,38.562
	l68.313,68.313C243.447,511.762,249.696,512,256,512C381.168,512,485.338,422.164,507.592,303.456z"/>
<polygon style="fill:#2B3B4E;" points="276.459,72.326 264.183,72.326 264.183,60.049 247.817,60.049 247.817,72.326 
	235.539,72.326 235.539,88.693 247.817,88.693 247.817,141.072 264.183,141.072 264.183,88.693 276.459,88.693 "/>
<polygon style="fill:#20303F;" points="264.185,72.326 264.185,60.049 255.426,60.049 255.426,141.072 264.185,141.072 
	264.185,88.693 276.459,88.693 276.459,72.326 "/>
<polygon style="fill:#324A5E;" points="301.754,180.97 210.246,180.97 197.073,110.995 314.927,110.995 "/>
<polygon style="fill:#2B3B4E;" points="314.927,110.995 255.426,110.995 255.426,180.97 301.754,180.97 "/>
<rect x="220.815" y="183.63" style="fill:#324A5E;" width="70.384" height="216.057"/>
<rect x="255.431" y="183.63" style="fill:#2B3B4E;" width="35.766" height="216.057"/>
<rect x="201.99" y="380.466" style="fill:#FC6F58;" width="108.037" height="34.373"/>
<rect x="255.431" y="380.466" style="fill:#F1543F;" width="54.589" height="34.373"/>
<rect x="168.943" y="396.55" style="fill:#324A5E;" width="174.114" height="46.459"/>
<rect x="255.431" y="396.55" style="fill:#2B3B4E;" width="87.631" height="46.459"/>
<rect x="197.077" y="168.081" style="fill:#FC6F58;" width="117.846" height="27.008"/>
<rect x="255.431" y="168.081" style="fill:#F1543F;" width="59.501" height="27.008"/>
</svg>