<?xml version="1.0" encoding="UTF-8"?>
<svg viewBox="0 0 504 504" xmlns="http://www.w3.org/2000/svg">
 <path d="m86.083 448.55c-4.5356-2.4736-5.0315-5.4241-4.6966-27.942l0.30852-20.74 2.8058-2.4115c2.5369-2.1804 3.7109-2.4115 12.25-2.4115l9.4442-1e-5 0.00374-17.75c0.00333-15.832 0.21236-18.074 1.9347-20.75 1.062-1.65 10.495-12 20.962-23l19.031-20 0.02605-71 0.02604-71-23.536-17.898c-12.945-9.844-23.966-18.702-24.492-19.684-0.55582-1.0386-0.95591-16.483-0.95591-36.902 0-38.413 0.16298-39.598 5.7621-41.918 2.043-0.84623 11.589-1.0999 33.521-0.89086 37.971 0.36195 35.06-1.056 35.549 17.317l0.33155 12.475h33.837v-10.532c-1e-5 -12.228 1.3321-16.534 5.6705-18.331 2.1454-0.88865 12.747-1.1325 40.096-0.92227 45.528 0.34997 41.571-1.2784 42.065 17.311l0.33155 12.475h33.837v-11.05c1e-5 -12.412 1.1374-15.936 5.7621-17.852 2.043-0.84623 11.589-1.0999 33.521-0.89086 30.388 0.28966 30.685 0.31283 32.941 2.569 2.2744 2.2748 2.2766 2.3084 2.5624 38.871 0.23632 30.24 0.0402 36.964-1.1295 38.723-0.77853 1.1712-11.816 10.004-24.527 19.629l-23.112 17.5-0.0054 71-0.00541 71 20.109 21.481c11.06 11.815 20.509 22.531 20.997 23.815s0.88737 9.9125 0.88737 19.175l-1e-5 16.841 9.9742 0.34372c15.123 0.52114 14.526-0.60374 14.526 27.344 1e-5 22.023-0.04274 22.487-2.2777 24.722l-2.2777 2.2778-164.72 0.21487c-140.94 0.18385-165.1 0.0092-167.33-1.2096v1e-5z"/>
 <path d="m387.19 96.542v-24.5h-38.837l-0.33155 12.475c-0.48553 18.268 2.0243 16.952-33.041 17.32-20.052 0.21042-28.981-0.046-31.021-0.89085-4.6326-1.9189-5.7697-5.4377-5.7697-17.855l-1e-5 -11.05h-52v11.944c-1e-5 11.182-0.15388 12.123-2.4121 14.75l-2.4121 2.8058-28.271 0.29546c-20.14 0.21049-29.095-0.04572-31.135-0.89085-4.6326-1.9189-5.7697-5.4377-5.7697-17.855l1e-5 -11.05h-39v49h270v-24.5z" fill="#fff"/>
 <path d="m357.47 148.79 12.137-9.25-58.706-0.25799c-32.288-0.1419-85.096-0.1419-117.35 0l-58.645 0.25799 11.895 9.1991 11.895 9.1991 93.319 0.05094 93.319 0.05094 12.137-9.25z" fill="#fff"/>
 <path d="m338.19 242.04v-66h-172v132h172v-66z" fill="#fff"/>
 <path d="m366.52 350.73c-1.0024-1.272-6.5476-7.3468-12.323-13.5l-10.5-11.187-91.577-4.8e-4 -91.577-4.6e-4 -12.754 13.5-12.754 13.5h233.31l-1.8226-2.3128z" fill="#fff"/>
 <path d="m380.19 383.04v-12h-256v24h256v-12z" fill="#fff"/>
 <path d="m405.19 422.54v-9.5h-306v19h306v-9.5z" fill="#fff"/>
</svg>
