<?xml version="1.0" encoding="UTF-8"?>
<svg viewBox="0 0 64 64" xmlns="http://www.w3.org/2000/svg">
 <g transform="matrix(1.0016 0 0 1.0183 -.051568 -2.1138)" stroke="#000" stroke-width="2">
  <path d="m30.768 10.924c-1.7315 0-3.1285 1.3938-3.1285 3.1106s1.3971 3.102 3.1285 3.102 3.1372-1.3852 3.1372-3.102-1.4058-3.1106-3.1372-3.1106zm0 6.2126c-13.802 4.9762-14.668 17.418-7.7676 19.284l-2.6287 6.439c2.9012 3.9876 17.65 4.2112 20.912 0l-2.7391-6.439c6.9008-1.8661 6.0252-14.308-7.7763-19.284zm0 29.142c-2.7827 1.9812-5.4406 5.1422-9.5195 2.7228-3.7031-2.1964-11.4 3.1542-12.202 3.9103l2.8404 2.9788c5.928-4.447 12.889-0.19171 18.881-4.1551 5.4975 4.1224 13.865-0.76848 20.709 4.3436l3.4758-3.1673s-10.448-4.8334-13.922-3.9103c-6.0214 1.5997-7.601-0.82785-10.263-2.7228zm0.00385-22.386v6.2202m-3.1367-3.1101h6.2734" fill="#fff" fill-rule="evenodd" stroke-linecap="round"/>
  <path d="m22.682 36.572c4.1823-2.1109 11.876-1.6722 16.058 0" fill="none"/>
  <path d="m21.031 42.854c6.0428-3.3815 12.622-3.8052 19.25-0.18773" fill="none"/>
 </g>
</svg>
