<?xml version="1.0" encoding="UTF-8"?>
<svg viewBox="0 0 64 64" xmlns="http://www.w3.org/2000/svg">
 <path d="m34.904 23.969c0.3125 3.9688-2.1562 8.7188-10.75 11.375-6.4688 3.0312-8.2812 11.375-11.625 11.75-0.44869-0.63344-3.7574-0.29677 0.15008-5.0396-3.8586 4.6859-9.138 0.54576-8.1501-3.5854 0.5-5.5 6.875-10.406 7.375-14.5-2-5.3438 4.5-9.875 4.5-9.875l0.125-8.75 8 4.5 4.25-5 3.25 6.875c25-4.75 26.469 35.688 27.562 47.375l-39.688 0.0625c-2.1875-9.0625 13.188-14.312 11.75-27.562m-7.125-21.75-7.625 4" fill="#fff" stroke="#000" stroke-linecap="round" stroke-linejoin="round" stroke-width="2"/>
 <path transform="matrix(.51974 .21576 -.3834 .92358 -15.897 -8.6131)" d="m72.09 13.334c0.77278-0.93619 2.0182-0.94621 2.8011-0.02252s0.81497 2.4411 0.07224 3.4128-1.987 1.0399-2.7983 0.15352-0.89123-2.4012-0.17965-3.4069"/>
 <path transform="matrix(.51974 .21576 -.3834 .92358 -23.897 10.137)" d="m72.09 13.334c0.77278-0.93619 2.0182-0.94621 2.8011-0.02252s0.81497 2.4411 0.07224 3.4128-1.987 1.0399-2.7983 0.15352-0.89123-2.4012-0.17965-3.4069"/>
</svg>
